<svg id="visual" viewBox="0 0 1920 1080" width="1920" height="1080" xmlns="http://www.w3.org/2000/svg" xmlns:xlink="http://www.w3.org/1999/xlink" version="1.1"><path d="M1246 1080L1221.7 1050C1197.3 1020 1148.7 960 1112.2 900C1075.7 840 1051.3 780 1083.3 720C1115.3 660 1203.7 600 1240.8 540C1278 480 1264 420 1212.8 360C1161.7 300 1073.3 240 1035 180C996.7 120 1008.3 60 1014.2 30L1020 0L1920 0L1920 30C1920 60 1920 120 1920 180C1920 240 1920 300 1920 360C1920 420 1920 480 1920 540C1920 600 1920 660 1920 720C1920 780 1920 840 1920 900C1920 960 1920 1020 1920 1050L1920 1080Z" fill="#c62368"></path><path d="M1460 1080L1422 1050C1384 1020 1308 960 1283.3 900C1258.7 840 1285.3 780 1316.2 720C1347 660 1382 600 1394 540C1406 480 1395 420 1396 360C1397 300 1410 240 1431.2 180C1452.3 120 1481.7 60 1496.3 30L1511 0L1920 0L1920 30C1920 60 1920 120 1920 180C1920 240 1920 300 1920 360C1920 420 1920 480 1920 540C1920 600 1920 660 1920 720C1920 780 1920 840 1920 900C1920 960 1920 1020 1920 1050L1920 1080Z" fill="#da3f67"></path><path d="M1468 1080L1460.8 1050C1453.7 1020 1439.3 960 1437.3 900C1435.3 840 1445.7 780 1458.2 720C1470.7 660 1485.3 600 1489.2 540C1493 480 1486 420 1484.5 360C1483 300 1487 240 1502.5 180C1518 120 1545 60 1558.5 30L1572 0L1920 0L1920 30C1920 60 1920 120 1920 180C1920 240 1920 300 1920 360C1920 420 1920 480 1920 540C1920 600 1920 660 1920 720C1920 780 1920 840 1920 900C1920 960 1920 1020 1920 1050L1920 1080Z" fill="#eb5967"></path><path d="M1676 1080L1671 1050C1666 1020 1656 960 1641 900C1626 840 1606 780 1620.8 720C1635.7 660 1685.3 600 1709 540C1732.7 480 1730.3 420 1704.2 360C1678 300 1628 240 1640.5 180C1653 120 1728 60 1765.5 30L1803 0L1920 0L1920 30C1920 60 1920 120 1920 180C1920 240 1920 300 1920 360C1920 420 1920 480 1920 540C1920 600 1920 660 1920 720C1920 780 1920 840 1920 900C1920 960 1920 1020 1920 1050L1920 1080Z" fill="#fa7268"></path></svg>